<!DOCTYPE svg PUBLIC "-//W3C//DTD SVG 1.1//EN" "http://www.w3.org/Graphics/SVG/1.1/DTD/svg11.dtd">

<!-- Uploaded to: SVG Repo, www.svgrepo.com, Transformed by: SVG Repo Mixer Tools -->
<svg fill="#1f2937" width="800px" height="800px" viewBox="0 0 24 24" xmlns="http://www.w3.org/2000/svg" stroke="#000000" stroke-width="0.4800000000000001">

<g id="SVGRepo_bgCarrier" stroke-width="0"/>

<g id="SVGRepo_tracerCarrier" stroke-linecap="round" stroke-linejoin="round"/>

<g id="SVGRepo_iconCarrier"> <g id="View_List" data-name="View List"> <g> <path d="M18.436,20.937H5.562a2.5,2.5,0,0,1-2.5-2.5V5.563a2.5,2.5,0,0,1,2.5-2.5H18.436a2.5,2.5,0,0,1,2.5,2.5V18.437A2.5,2.5,0,0,1,18.436,20.937ZM5.562,4.063a1.5,1.5,0,0,0-1.5,1.5V18.437a1.5,1.5,0,0,0,1.5,1.5H18.436a1.5,1.5,0,0,0,1.5-1.5V5.563a1.5,1.5,0,0,0-1.5-1.5Z"/> <path d="M6.544,8.283h0a.519.519,0,0,1-.353-.147.5.5,0,0,1,0-.707.512.512,0,0,1,.353-.146H7.55a.516.516,0,0,1,.353.146.5.5,0,0,1,.147.354.5.5,0,0,1-.5.5Z"/> <path d="M6.544,12.5h0a.523.523,0,0,1-.353-.146.5.5,0,0,1,0-.708.516.516,0,0,1,.353-.146H7.55a.521.521,0,0,1,.353.146.5.5,0,0,1,0,.708.516.516,0,0,1-.353.146Z"/> <path d="M6.544,16.72h0a.519.519,0,0,1-.353-.147.5.5,0,0,1,0-.707.516.516,0,0,1,.353-.146H7.55a.516.516,0,0,1,.353.146.5.5,0,0,1,.147.354.5.5,0,0,1-.5.5Z"/> <path d="M10.554,8.281h0a.5.5,0,0,1,0-1h6.9a.5.5,0,0,1,0,1Z"/> <path d="M10.554,12.5h0a.5.5,0,0,1,0-1h6.9a.5.5,0,0,1,0,1Z"/> <path d="M10.554,16.718h0a.5.5,0,0,1,0-1h6.9a.5.5,0,0,1,0,1Z"/> </g> </g> </g>

</svg>